<svg xmlns="http://www.w3.org/2000/svg" viewBox="0 0 512 512"><rect width="512" height="512" rx="112" fill="#ECEDF1"/><g transform="translate(83.19999999999999 68.79999999999998) scale(7.2)">
  <ellipse cx="24" cy="47.6" rx="17" ry="2.4" fill="#26272D" opacity=".10"/>
  <rect x="2" y="4" width="44" height="42" rx="14" fill="#A8121C"/>
  <rect x="2" y="4" width="44" height="38" rx="14" fill="#E0202C"/>
  <rect x="9" y="8.5" width="9" height="3" rx="1.5" fill="#fff" opacity=".3"/>
  <path d="M13.8 22.8q4-6.2 8 0M26.2 22.8q4-6.2 8 0" fill="none" stroke="#fff" stroke-width="3.8" stroke-linecap="round" stroke-linejoin="round"/>
  <path d="M18.5 28.5h11a5.5 5.5 0 0 1-11 0z" fill="#fff"/></g><g transform="translate(387.04 114.82239999999997) scale(44.64)" fill="#B98300"><path d="M0 -1Q.14 -.14 1 0Q.14 .14 0 1Q-.14 .14 -1 0Q-.14 -.14 0 -1z"/></g><g transform="translate(387.04 107.67999999999998) scale(44.64)" fill="#FFC23D"><path d="M0 -1Q.14 -.14 1 0Q.14 .14 0 1Q-.14 .14 -1 0Q-.14 -.14 0 -1z"/></g></svg>
